<svg width="104" height="76" xmlns="http://www.w3.org/2000/svg" xmlns:xlink="http://www.w3.org/1999/xlink" xml:space="preserve" overflow="hidden"><g transform="translate(-1164 -12)"><g><g><g><g><path d="M66.894 49.1095 71.1292 51.8114 66.8984 51.8114 66.8984 49.1095 66.8954 49.1095ZM63.6838 43.0026 63.6941 51.3296 60.5338 51.3296 60.5265 45.2272 57.5228 45.2272 57.5331 51.3369 54.0843 51.3369 54.0638 35.9366 51.2637 33.7867 51.2871 54.1194 78.721 54.0916 63.6838 43.0012Z" fill="#FFFFFF" fill-rule="nonzero" fill-opacity="1" transform="matrix(1.00415 0 0 1 1164 13.0083)"/><path d="M66.894 49.1095 71.1292 51.8114 66.8984 51.8114 66.8984 49.1095 66.8954 49.1095ZM63.6838 43.0026 63.6941 51.3296 60.5338 51.3296 60.5265 45.2272 57.5228 45.2272 57.5331 51.3369 54.0843 51.3369 54.0638 35.9366 51.2637 33.7867 51.2871 54.1194 78.721 54.0916 63.6838 43.0012Z" fill="#FFFFFF" fill-rule="nonzero" fill-opacity="1" transform="matrix(1.00415 0 0 1 1164 13.0083)"/><path d="M35.67 51.8422 31.2825 51.8495 35.6671 49.1402 35.6671 51.8466 35.67 51.8436ZM49.4668 54.1238 49.4536 43.1549 45.8217 46.2816 45.8291 51.3472 38.2373 51.3545 38.2373 50.8024 38.227 43.1667 24.1696 54.1487C24.1696 54.1487 49.4668 54.1253 49.4668 54.1253Z" fill="#FFFFFF" fill-rule="nonzero" fill-opacity="1" transform="matrix(1.00415 0 0 1 1164 13.0083)"/><path d="M35.67 51.8422 31.2825 51.8495 35.6671 49.1402 35.6671 51.8466 35.67 51.8436ZM49.4668 54.1238 49.4536 43.1549 45.8217 46.2816 45.8291 51.3472 38.2373 51.3545 38.2373 50.8024 38.227 43.1667 24.1696 54.1487C24.1696 54.1487 49.4668 54.1253 49.4668 54.1253Z" fill="#FFFFFF" fill-rule="nonzero" fill-opacity="1" transform="matrix(1.00415 0 0 1 1164 13.0083)"/><path d="M47.276 58.0779C47.9071 58.0779 48.4182 57.5653 48.4182 56.9312 48.4182 56.2971 47.9027 55.7845 47.2716 55.7889 46.6374 55.7889 46.1293 56.3044 46.1293 56.9356 46.1293 57.5668 46.6418 58.0823 47.276 58.0823L47.276 58.0823 47.276 58.0793Z" fill="#FFFFFF" fill-rule="nonzero" fill-opacity="1" transform="matrix(1.00415 0 0 1 1164 13.0083)"/><path d="M85.6772 57.9241 85.3624 57.9241 49.8973 57.9446 49.5854 57.9446C49.7216 57.6327 49.7992 57.29 49.7992 56.9268 49.7992 56.5636 49.7245 56.2385 49.5957 55.9368L49.9076 55.9368 85.3594 55.9163 85.6714 55.9163 85.6787 57.9241Z" fill="#FFFFFF" fill-rule="nonzero" fill-opacity="1" transform="matrix(1.00415 0 0 1 1164 13.0083)"/><path d="M44.7468 56.9341C44.7468 57.287 44.8215 57.6224 44.9504 57.927L44.6384 57.927 17.2119 57.9446 16.897 57.9446 16.897 55.9339 17.206 55.9339 44.6428 55.9207 44.9577 55.9207C44.8186 56.2297 44.7439 56.5753 44.7439 56.9341L44.7468 56.9341Z" fill="#FFFFFF" fill-rule="nonzero" fill-opacity="1" transform="matrix(1.00415 0 0 1 1164 13.0083)"/><path d="M51.1583 15.3959 20.05 46.2376 51.1656 20.4205 51.1583 15.3959Z" fill="#FFFFFF" fill-rule="nonzero" fill-opacity="1" transform="matrix(1.00415 0 0 1 1164 13.0083)"/><path d="M51.1583 15.3959 20.05 46.2376 51.1656 20.4205 51.1583 15.3959Z" fill="#FFFFFF" fill-rule="nonzero" fill-opacity="1" transform="matrix(1.00415 0 0 1 1164 13.0083)"/><path d="M51.1685 24.625 51.1758 29.4124 42.0551 35.9805 42.0507 32.8949 51.1685 24.625Z" fill="#FFFFFF" fill-rule="nonzero" fill-opacity="1" transform="matrix(1.00415 0 0 1 1164 13.0083)"/><path d="M51.1685 24.625 51.1758 29.4124 42.0551 35.9805 42.0507 32.8949 51.1685 24.625Z" fill="#FFFFFF" fill-rule="nonzero" fill-opacity="1" transform="matrix(1.00415 0 0 1 1164 13.0083)"/><path d="M38.6136 35.9878 38.6166 38.5887 16.897 54.1546 38.6136 35.9878Z" fill="#FFFFFF" fill-rule="nonzero" fill-opacity="1" transform="matrix(1.00415 0 0 1 1164 13.0083)"/><path d="M38.6136 35.9878 38.6166 38.5887 16.897 54.1546 38.6136 35.9878Z" fill="#FFFFFF" fill-rule="nonzero" fill-opacity="1" transform="matrix(1.00415 0 0 1 1164 13.0083)"/><path d="M51.1583 15.3959 82.5037 46.1791 51.1656 20.4205 51.1583 15.3959Z" fill="#FFFFFF" fill-rule="nonzero" fill-opacity="1" transform="matrix(1.00415 0 0 1 1164 13.0083)"/><path d="M51.1583 15.3959 82.5037 46.1791 51.1656 20.4205 51.1583 15.3959Z" fill="#FFFFFF" fill-rule="nonzero" fill-opacity="1" transform="matrix(1.00415 0 0 1 1164 13.0083)"/><path d="M51.1685 24.625 51.1758 29.4124 60.3156 35.9644 60.3126 32.8788 51.1685 24.625Z" fill="#FFFFFF" fill-rule="nonzero" fill-opacity="1" transform="matrix(1.00415 0 0 1 1164 13.0083)"/><path d="M51.1685 24.625 51.1758 29.4124 60.3156 35.9644 60.3126 32.8788 51.1685 24.625Z" fill="#FFFFFF" fill-rule="nonzero" fill-opacity="1" transform="matrix(1.00415 0 0 1 1164 13.0083)"/><path d="M63.9138 35.96 63.9167 38.5638 85.6772 54.0857 63.9138 35.96Z" fill="#FFFFFF" fill-rule="nonzero" fill-opacity="1" transform="matrix(1.00415 0 0 1 1164 13.0083)"/><path d="M63.9138 35.96 63.9167 38.5638 85.6772 54.0857 63.9138 35.96Z" fill="#FFFFFF" fill-rule="nonzero" fill-opacity="1" transform="matrix(1.00415 0 0 1 1164 13.0083)"/><path d="M59.0239 40.4764C59.6551 40.4764 60.1706 39.9609 60.1706 39.3268 60.1706 38.6927 59.6522 38.1801 59.0239 38.1801 58.3957 38.1801 57.8743 38.6956 57.8772 39.3268 57.8772 39.9609 58.3898 40.4735 59.0268 40.4735" fill="#FFFFFF" fill-rule="nonzero" fill-opacity="1" transform="matrix(1.00415 0 0 1 1164 13.0083)"/><path d="M57.0586 43.8169C57.6898 43.8169 58.2053 43.3014 58.2053 42.6702 58.2053 42.039 57.6898 41.5235 57.0557 41.5235 56.4216 41.5235 55.909 42.039 55.909 42.6731 55.909 43.3072 56.4274 43.8198 57.0586 43.8198" fill="#FFFFFF" fill-rule="nonzero" fill-opacity="1" transform="matrix(1.00415 0 0 1 1164 13.0083)"/><path d="M60.9878 43.8125C61.6219 43.8125 62.1344 43.297 62.1344 42.6658 62.1344 42.0346 61.6189 41.5191 60.9848 41.5191 60.3507 41.5191 59.8425 42.0346 59.8425 42.6687 59.8425 43.3028 60.3551 43.8154 60.9892 43.8154" fill="#FFFFFF" fill-rule="nonzero" fill-opacity="1" transform="matrix(1.00415 0 0 1 1164 13.0083)"/><path d="M40.9187 42.348C41.5528 42.348 42.0654 41.8355 42.0654 41.2013 42.0654 40.5672 41.5499 40.0547 40.9158 40.0591 40.2817 40.0591 39.7691 40.5716 39.7691 41.2057 39.7691 41.8398 40.2846 42.3524 40.9187 42.3524" fill="#FFFFFF" fill-rule="nonzero" fill-opacity="1" transform="matrix(1.00415 0 0 1 1164 13.0083)"/><path d="M40.9187 46.4617C41.5528 46.4617 42.0654 45.9491 42.0654 45.315 42.0654 44.6809 41.5499 44.1684 40.9158 44.1684 40.2817 44.1713 39.7691 44.6838 39.7691 45.315 39.7691 45.9462 40.2846 46.4617 40.9187 46.4617" fill="#FFFFFF" fill-rule="nonzero" fill-opacity="1" transform="matrix(1.00415 0 0 1 1164 13.0083)"/></g></g></g></g></g></svg>